<svg xmlns="http://www.w3.org/2000/svg" width="128" height="128" viewBox="0 0 24 24"><path fill="#ffffff" d="m13.9 21.177l-.512.512q-.13.13-.292.13t-.292-.13l-.512-.512q-.13-.13-.13-.292t.13-.293l.512-.511q.13-.131.292-.131t.293.13l.511.512q.13.131.13.293t-.13.292m-4.567-1.029q-.148-.148-.148-.313q0-.166.148-.314l1.9-1.9q.148-.148.313-.148q.166 0 .314.148t.148.314q0 .165-.148.313l-1.9 1.9q-.149.148-.314.148t-.313-.148m7.567-1.971l-.511.512q-.131.13-.293.13t-.292-.13l-.512-.512q-.13-.13-.13-.292t.13-.293l.512-.511q.13-.131.292-.131t.293.13l.511.512q.13.131.13.293t-.13.292m-9 0l-.511.512q-.131.13-.293.13t-.292-.13l-.512-.512q-.13-.13-.13-.292t.13-.293l.512-.511q.13-.131.292-.131t.293.13l.511.512q.13.131.13.293t-.13.292M7.5 15.5q-2.083 0-3.541-1.459Q2.5 12.583 2.5 10.5q0-1.94 1.308-3.356t3.275-1.633q.742-1.405 2.033-2.208Q10.408 2.5 12 2.5q2.154 0 3.701 1.428t1.801 3.559q1.84.111 2.92 1.28Q21.5 9.937 21.5 11.5q0 1.664-1.168 2.832T17.5 15.5z"/></svg>